<svg xmlns="http://www.w3.org/2000/svg" xmlns:xlink="http://www.w3.org/1999/xlink" version="1.1" x="0px" y="0px" viewBox="0 0 100 125" enable-background="new 0 0 100 100" xml:space="preserve"><path fill-rule="evenodd" clip-rule="evenodd" d="M71.583,82.4H28.416c-3.314,0-6-2.687-6-6V45.205c0-3.314,2.686-6,6-6h1.155  v-1.177h0.038C29.613,26.746,38.761,17.6,50.044,17.6c11.286,0,20.337,9.149,20.337,20.435c0,0.413,0.016,0.796,0.017,1.17h1.184  c3.314,0,6,2.686,6,6V76.4C77.583,79.714,74.898,82.4,71.583,82.4z M50.085,24.803c-7.291,0-13.201,5.91-13.204,13.199h-0.025v1.203  H63.23V39.11c0.034-0.348,0.06-0.708,0.06-1.103C63.289,30.715,57.377,24.803,50.085,24.803z M70.418,48.833  c0-1.326-1.075-2.4-2.4-2.4H31.987c-1.325,0-2.4,1.074-2.4,2.4v23.979c0,1.326,1.075,2.4,2.4,2.4h36.031c1.325,0,2.4-1.075,2.4-2.4  V48.833z M50.584,67.978h-1.2c-1.651,0-2.989-1.338-2.989-2.989v-8.292c0-1.651,1.338-2.989,2.989-2.989h1.2  c1.651,0,2.989,1.338,2.989,2.989v8.292C53.574,66.64,52.235,67.978,50.584,67.978z"/><text x="0" y="115" fill="#000000" font-size="5px" font-weight="bold" font-family="'Helvetica Neue', Helvetica, Arial-Unicode, Arial, Sans-serif">Created by Alex Bickov</text><text x="0" y="120" fill="#000000" font-size="5px" font-weight="bold" font-family="'Helvetica Neue', Helvetica, Arial-Unicode, Arial, Sans-serif">from the Noun Project</text></svg>